<svg xmlns="http://www.w3.org/2000/svg" width="256" height="256" viewBox="0 0 256 256"><rect x="8" y="8" width="240" height="240" rx="65" fill="#168c65"/><path d="M191 122c0 38-29 68-67 68-11 0-22-3-31-7l-34 12 10-34c-8-11-12-24-12-39 0-38 30-68 67-68s67 30 67 68Z" fill="none" stroke="white" stroke-width="13" stroke-linejoin="round"/><path d="M93 93c-7 6-5 21 9 37s30 24 39 20l10-10-18-11-8 7c-9-4-16-11-19-19l6-8-10-19Z" fill="white"/><circle cx="187" cy="187" r="31" fill="#a7efc2" stroke="#168c65" stroke-width="9"/><path d="m174 187 9 9 17-18" fill="none" stroke="#168c65" stroke-width="6" stroke-linecap="round" stroke-linejoin="round"/></svg>
